<svg width="27" height="23" viewBox="0 0 27 23" fill="none" xmlns="http://www.w3.org/2000/svg">
<mask id="path-1-inside-1" fill="white">
<path fill-rule="evenodd" clip-rule="evenodd" d="M24.1967 1.90133C21.6616 -0.633772 17.5514 -0.633778 15.0163 1.90132L13.049 3.86862L11.0817 1.90134C8.54664 -0.63376 4.43643 -0.63376 1.90133 1.90134C-0.633772 4.43644 -0.633778 8.54665 1.90132 11.0817L13.049 22.2294L13.049 22.2293L13.0491 22.2294L24.1967 11.0817C26.7318 8.54664 26.7318 4.43643 24.1967 1.90133Z"/>
</mask>
<path d="M15.0163 1.90132L13.6021 0.487108L13.6021 0.487108L15.0163 1.90132ZM24.1967 1.90133L25.6109 0.487116L25.6109 0.487116L24.1967 1.90133ZM13.049 3.86862L11.6348 5.28283L13.049 6.69704L14.4632 5.28283L13.049 3.86862ZM11.0817 1.90134L12.496 0.487127L12.496 0.487127L11.0817 1.90134ZM1.90133 1.90134L3.31554 3.31555L3.31554 3.31555L1.90133 1.90134ZM1.90132 11.0817L0.487109 12.496L0.487109 12.496L1.90132 11.0817ZM13.049 22.2294L11.6348 23.6436L13.049 25.0578L14.4632 23.6436L13.049 22.2294ZM13.049 22.2293L14.4787 20.8308L13.0647 19.3853L11.6348 20.8151L13.049 22.2293ZM13.0491 22.2294L11.6194 23.628L13.0334 25.0734L14.4633 23.6436L13.0491 22.2294ZM24.1967 11.0817L22.7825 9.66753L22.7825 9.66753L24.1967 11.0817ZM16.4305 3.31554C18.1846 1.56149 21.0285 1.56149 22.7825 3.31554L25.6109 0.487116C22.2948 -2.82903 16.9183 -2.82904 13.6021 0.487108L16.4305 3.31554ZM14.4632 5.28283L16.4305 3.31554L13.6021 0.487108L11.6348 2.4544L14.4632 5.28283ZM9.66753 3.31555L11.6348 5.28283L14.4632 2.4544L12.496 0.487127L9.66753 3.31555ZM3.31554 3.31555C5.06959 1.5615 7.91348 1.5615 9.66753 3.31555L12.496 0.487127C9.17981 -2.82902 3.80326 -2.82902 0.487115 0.487128L3.31554 3.31555ZM3.31554 9.66754C1.56149 7.91349 1.56149 5.06961 3.31554 3.31555L0.487115 0.487128C-2.82903 3.80327 -2.82904 9.17981 0.487109 12.496L3.31554 9.66754ZM14.4632 20.8152L3.31554 9.66754L0.487109 12.496L11.6348 23.6436L14.4632 20.8152ZM11.6348 20.8151L11.6348 20.8152L14.4632 23.6436L14.4632 23.6436L11.6348 20.8151ZM14.4787 20.8308L14.4787 20.8308L11.6194 23.6279L11.6194 23.628L14.4787 20.8308ZM22.7825 9.66753L11.6349 20.8152L14.4633 23.6436L25.6109 12.496L22.7825 9.66753ZM22.7825 3.31554C24.5366 5.0696 24.5366 7.91348 22.7825 9.66753L25.6109 12.496C28.9271 9.17981 28.9271 3.80327 25.6109 0.487116L22.7825 3.31554Z" fill="#A13A4D" mask="url(#path-1-inside-1)"/>
</svg>
